# xmcd CD database file
#
# Track frame offsets:
#	187
#	21392
#	44152
#
# Disc length: 870 seconds
#
# Revision: 0
# Processed by: cddbd v1.5.1PL0 Copyright (c) Steve Scherf et al.
# Submitted via: CDex 1.51
#
DISCID=26036403
DTITLE=早瀬優香子 with 渡辺裕之 - マリリン＆ジョンの微笑
DYEAR=1989
DGENRE=JPop
TTITLE0=マリリン＆ジョンの微笑
TTITLE1=冷たい水
TTITLE2=マリリン＆ジョンの微笑 instrumental
EXTD=YEAR: 1989
EXTT0=
EXTT1=
EXTT2=
PLAYORDER=
